# xmcd
#
# Track frame offsets: 
#        150
#        12267
#        24122
#        36885
#        50027
#        61612
#        74052
#        86357
#        99165
#        111412
#        124185
#        136897
#        149900
#        163217
#        176452
#        190060
#        202770
#        215980
#        227950
#        238737
#        250980
#        263370
#        275905
#        288517
#        300690
#        313850
#
# Disc length: 4335 seconds
#
# Revision: 2
# Processed by: cddbd v1.4PL0 Copyright (c) Steve Scherf et al.
# Submitted via: ExactAudioCopy v0.90b3
#
DISCID=8810ed1a
DTITLE=Flatt and Scruggs - Bear Family Box 1948-1959 - CD2
DYEAR=1991
DGENRE=Bluegrass
TTITLE0=Come Back Darling
TTITLE1=I'm Head Over Heels In Love
TTITLE2=I'm Waiting To Hear You Call Me Darling
TTITLE3=The Old Home Town
TTITLE4=I'll Stay Around
TTITLE5=We Can't Be Darlings Anymore
TTITLE6=Jimmie Brown, The Newsboy
TTITLE7=Somehow Tonight
TTITLE8=Don't Get Above My Raising
TTITLE9=I'm Working On A Road
TTITLE10=He Took Your Place
TTITLE11=I've Lost You
TTITLE12='Tis Sweet To Be Remembered
TTITLE13=I'm Gonna Settle Down
TTITLE14=Earl's Breakdown
TTITLE15=I'm Lonesome And Blue
TTITLE16=Over The Hills To The Poorhouse
TTITLE17=My Darling's Last Goodbye
TTITLE18=Get In Line Brother
TTITLE19=Brother, I'm Getting Ready To Go
TTITLE20=Why Did You Wonder?
TTITLE21=Flint Hill Special
TTITLE22=Thinking About You
TTITLE23=If I Should Wander Back Tonight
TTITLE24=Dim Lights, Thick Smoke
TTITLE25=Dear Old Dixie
EXTD=Bear Family Records - BCD 15472-2\n\nDisc 2 of 4 Volume Set
EXTT0=
EXTT1=
EXTT2=
EXTT3=
EXTT4=
EXTT5=
EXTT6=
EXTT7=
EXTT8=
EXTT9=
EXTT10=
EXTT11=
EXTT12=
EXTT13=
EXTT14=
EXTT15=
EXTT16=
EXTT17=
EXTT18=
EXTT19=
EXTT20=
EXTT21=
EXTT22=
EXTT23=
EXTT24=
EXTT25=
PLAYORDER=
